#!OML:ASF F:\VICON\USERDATA\INSTALL\rory3\rory3.ASF
:FULLY-SPECIFIED
:DEGREES
406
root 0.79501 17.7725 -16.9704 3.62853 -0.535026 0.426819
lowerback 4.21186 -0.313488 -0.549539
upperback -0.751842 -0.381161 2.16441
thorax -3.11838 -0.160177 2.56534
lowerneck -19.3647 -3.63327 -9.64293
upperneck 16.1716 -3.63149 6.87489
head 8.53027 -1.60143 3.44304
rclavicle 1.11816e-014 7.15625e-015
rhumerus -37.994 -15.238 -73.2559
rradius 39.6419
rwrist 2.91499
rhand -11.9967 15.337
rfingers 7.12502
rthumb 14.0602 -14.1674
lclavicle 1.11816e-014 7.15625e-015
lhumerus -37.3842 9.34104 80.627
lradius 37.4506
lwrist -3.33449
lhand -18.7865 21.3268
lfingers 7.12502
lthumb 7.51121 51.1734
rfemur -4.69285 2.56918 24.846
rtibia 17.931
rfoot -10.998 -10.8426
rtoes 5.31263
lfemur -8.62231 -5.17235 -19.5229
ltibia 21.5761
lfoot -12.1549 5.54038
ltoes -1.96804
407
root 0.797758 17.7733 -16.9679 3.60788 -0.446917 0.349229
lowerback 4.35766 -0.35286 -0.488382
upperback -0.891488 -0.425723 2.21154
thorax -3.34274 -0.18017 2.58574
lowerneck -19.1315 -3.58685 -9.62994
upperneck 16.1711 -3.58097 6.80976
head 8.48333 -1.58774 3.42599
rclavicle -1.77912e-014 1.66979e-014
rhumerus -38.2197 -15.1347 -73.1786
rradius 39.5103
rwrist 3.05135
rhand -11.7144 12.4554
rfingers 7.12502
rthumb 14.3322 -17.0299
lclavicle -1.77912e-014 1.66979e-014
lhumerus -37.6819 9.27017 80.6562
lradius 37.6407
lwrist -3.11555
lhand -18.4709 21.1178
lfingers 7.12502
lthumb 7.81588 50.9534
rfemur -4.63039 2.6283 24.9536
rtibia 17.8905
rfoot -10.9979 -11.0026
rtoes 5.57903
lfemur -8.55921 -5.23658 -19.4336
ltibia 21.5033
lfoot -12.1801 5.46147
ltoes -1.7543
408
root 0.800467 17.7757 -16.9685 3.68072 -0.316463 0.36877
lowerback 4.34431 -0.392347 -0.493491
upperback -0.991134 -0.477391 2.20605
thorax -3.43572 -0.20436 2.5875
lowerneck -18.8868 -3.55501 -9.54367
upperneck 16.0367 -3.5657 6.73865
head 8.39071 -1.58562 3.38846
rclavicle -9.14409e-015 -1.19271e-014
rhumerus -38.4049 -15.0428 -73.1995
rradius 39.5127
rwrist 3.16511
rhand -11.8347 11.0002
rfingers 7.12502
rthumb 14.2163 -18.4933
lclavicle -9.14409e-015 -1.19271e-014
lhumerus -37.8472 9.18439 80.6532
lradius 37.6969
lwrist -2.93322
lhand -18.1344 21.3441
lfingers 7.12502
lthumb 8.14059 51.1673
rfemur -4.63599 2.67263 24.9322
rtibia 17.7679
rfoot -11.013 -11.0909
rtoes 6.17453
lfemur -8.67867 -5.34105 -19.432
ltibia 21.5062
lfoot -12.2009 5.39301
ltoes -1.43417
409
root 0.805188 17.7796 -16.963 3.68564 -0.285308 0.294265
lowerback 4.26292 -0.382943 -0.392931
upperback -0.980112 -0.459561 2.21951
thorax -3.37992 -0.197934 2.5424
lowerneck -18.8411 -3.56487 -9.5513
upperneck 15.9027 -3.58583 6.78566
head 8.34037 -1.59045 3.40172
rclavicle -5.96354e-015 -2.22639e-014
rhumerus -38.4536 -15.1936 -73.1537
rradius 39.4464
rwrist 3.41642
rhand -12.3134 11.9456
rfingers 7.12502
rthumb 13.7549 -17.5797
lclavicle -5.96354e-015 -2.22639e-014
lhumerus -37.8191 9.12162 80.6789
lradius 37.6559
lwrist -2.69959
lhand -18.2604 21.7028
lfingers 7.12502
lthumb 8.019 51.5307
rfemur -4.51411 2.77785 24.9821
rtibia 17.5879
rfoot -11.1171 -11.0638
rtoes 7.30038
lfemur -8.66818 -5.36658 -19.358
ltibia 21.5685
lfoot -12.3007 5.36618
ltoes -1.14258
410
root 0.809429 17.7831 -16.955 3.64664 -0.4572 0.130675
lowerback 4.22401 -0.322942 -0.220094
upperback -0.938521 -0.37012 2.24831
thorax -3.32006 -0.157274 2.4677
lowerneck -19.0395 -3.56427 -9.59519
upperneck 15.9272 -3.57947 6.90944
head 8.3858 -1.57415 3.45201
rclavicle 1.02374e-014 5.56597e-015
rhumerus -38.5598 -15.2444 -73.1591
rradius 39.5138
rwrist 3.58908
rhand -12.4072 11.3967
rfingers 7.12502
rthumb 13.6646 -18.1348
lclavicle 1.02374e-014 5.56597e-015
lhumerus -37.8849 9.08574 80.6807
lradius 37.8027
lwrist -2.45772
lhand -18.3738 21.9404
lfingers 7.12502
lthumb 7.90959 51.7724
rfemur -4.38964 2.85605 25.1607
rtibia 17.4426
rfoot -10.8932 -11.0719
rtoes 6.28394
lfemur -8.50431 -5.31749 -19.2109
ltibia 21.5945
lfoot -12.4054 5.44125
ltoes -0.522943
411
root 0.813929 17.7852 -16.9493 3.6165 -0.529886 0.130761
lowerback 4.2568 -0.276867 -0.177404
upperback -0.944083 -0.306809 2.2181
thorax -3.34743 -0.126661 2.40834
lowerneck -19.224 -3.63544 -9.54247
upperneck 16.1099 -3.67266 6.86474
head 8.48624 -1.61757 3.41724
rclavicle -5.86415e-015 7.95139e-016
rhumerus -38.8612 -15.2259 -73.1611
rradius 39.8011
rwrist 3.46766
rhand -12.5931 11.3172
rfingers 7.12502
rthumb 13.4854 -18.2262
lclavicle -5.86415e-015 7.95139e-016
lhumerus -38.025 8.97217 80.6984
lradius 37.9896
lwrist -2.26477
lhand -18.3515 21.7688
lfingers 7.12502
lthumb 7.93107 51.6
rfemur -4.26522 2.80739 25.1521
rtibia 17.2771
rfoot -10.7231 -11.0375
rtoes 5.40236
lfemur -8.40952 -5.29701 -19.2362
ltibia 21.6317
lfoot -12.5037 5.40357
ltoes -0.148454
412
root 0.818813 17.7846 -16.944 3.60811 -0.56893 0.256215
lowerback 4.35672 -0.244293 -0.305035
upperback -1.07834 -0.268348 2.18216
thorax -3.54387 -0.10302 2.44245
lowerneck -19.1129 -3.67524 -9.49522
upperneck 16.2555 -3.73978 6.77749
head 8.5195 -1.65841 3.37266
rclavicle 5.76476e-015 1.19271e-014
rhumerus -39.2894 -15.2177 -73.081
rradius 39.9323
rwrist 3.05353
rhand -12.6521 12.2672
rfingers 7.12502
rthumb 13.4286 -17.28
lclavicle 5.76476e-015 1.19271e-014
lhumerus -38.3329 8.81133 80.7187
lradius 38.1924
lwrist -2.04009
lhand -18.1969 21.8948
lfingers 7.12502
lthumb 8.0803 51.7203
rfemur -4.17987 2.77205 24.9704
rtibia 17.155
rfoot -10.7873 -10.882
rtoes 5.64643
lfemur -8.37577 -5.28779 -19.411
ltibia 21.6504
lfoot -12.582 5.45165
ltoes -0.521872
413
root 0.825007 17.7833 -16.9409 3.61758 -0.702253 0.316497
lowerback 4.34523 -0.207471 -0.386451
upperback -1.14893 -0.222509 2.18981
thorax -3.61221 -0.0773712 2.49341
lowerneck -19.0179 -3.60053 -9.49845
upperneck 16.242 -3.64702 6.78825
head 8.4903 -1.61539 3.38955
rclavicle -8.24956e-015 7.95139e-016
rhumerus -39.4487 -15.2709 -72.9814
rradius 39.86
rwrist 2.80475
rhand -12.6233 12.5716
rfingers 7.12502
rthumb 13.4563 -16.9738
lclavicle -8.24956e-015 7.95139e-016
lhumerus -38.5729 8.80545 80.7515
lradius 38.4831
lwrist -1.82895
lhand -18.0143 22.3579
lfingers 7.12502
lthumb 8.25651 52.1766
rfemur -4.19803 2.78368 24.8674
rtibia 17.113
rfoot -10.7879 -10.804
rtoes 5.30424
lfemur -8.33861 -5.23408 -19.5168
ltibia 21.6112
lfoot -12.6272 5.55513
ltoes -0.665778
414
root 0.831157 17.7837 -16.9375 3.62291 -0.738569 0.369466
lowerback 4.2745 -0.2135 -0.450548
upperback -1.11602 -0.234962 2.19957
thorax -3.53741 -0.0828888 2.53963
lowerneck -19.1552 -3.51908 -9.54703
upperneck 16.2137 -3.53212 6.91169
head 8.49763 -1.54885 3.45469
rclavicle -1.59525e-014 -1.03368e-014
rhumerus -39.343 -15.4401 -72.9068
rradius 39.8699
rwrist 3.08261
rhand -13.1753 11.9918
rfingers 7.12502
rthumb 12.9242 -17.588
lclavicle -1.59525e-014 -1.03368e-014
lhumerus -38.5584 8.9354 80.7632
lradius 38.6337
lwrist -1.56592
lhand -17.8989 22.2977
lfingers 7.12502
lthumb 8.36788 52.1119
rfemur -4.22989 2.71491 24.7837
rtibia 17.1765
rfoot -10.8343 -10.835
rtoes 4.64458
lfemur -8.24543 -5.30294 -19.6006
ltibia 21.4812
lfoot -12.6183 5.62974
ltoes -0.310642
415
root 0.835888 17.7856 -16.9325 3.68443 -0.693033 0.361005
lowerback 4.15466 -0.252427 -0.472461
upperback -1.11198 -0.28756 2.24558
thorax -3.46286 -0.108761 2.60224
lowerneck -19.1907 -3.48058 -9.59257
upperneck 16.1094 -3.46011 6.92035
head 8.46309 -1.51541 3.4732
rclavicle 5.46658e-015 -8.74653e-015
rhumerus -39.2616 -15.5449 -72.8626
rradius 39.8002
rwrist 2.90699
rhand -14.4156 13.3402
rfingers 7.12502
rthumb 11.7284 -16.3114
lclavicle 5.46658e-015 -8.74653e-015
lhumerus -38.4905 9.09729 80.7709
lradius 38.6326
lwrist -1.23387
lhand -17.7351 22.4026
lfingers 7.12502
lthumb 8.52603 52.2105
rfemur -4.29285 2.72863 24.7737
rtibia 17.2711
rfoot -10.9432 -10.8938
rtoes 4.74602
lfemur -8.19163 -5.33449 -19.6031
ltibia 21.3349
lfoot -12.5924 5.61316
ltoes -0.0858121
416
root 0.840063 17.7853 -16.9307 3.6925 -0.684062 0.359783
lowerback 4.00691 -0.268147 -0.522837
upperback -1.05445 -0.31124 2.30889
thorax -3.3184 -0.120508 2.69586
lowerneck -19.0651 -3.47086 -9.69236
upperneck 15.91 -3.41998 6.90762
head 8.3719 -1.50456 3.48809
rclavicle 1.64494e-014 8.74653e-015
rhumerus -39.1424 -15.6569 -72.8028
rradius 39.5265
rwrist 2.11742
rhand -15.692 16.2453
rfingers 7.12502
rthumb 10.4973 -13.4726
lclavicle 1.64494e-014 8.74653e-015
lhumerus -38.397 9.26994 80.8017
lradius 38.6185
lwrist -1.01959
lhand -17.6244 22.4669
lfingers 7.12502
lthumb 8.63278 52.2704
rfemur -4.30206 2.86608 24.7431
rtibia 17.3299
rfoot -11.0808 -10.8871
rtoes 6.35635
lfemur -8.18958 -5.19855 -19.6192
ltibia 21.2435
lfoot -12.509 5.52009
ltoes -0.582956
417
root 0.842969 17.782 -16.9284 3.67789 -0.720463 0.329516
lowerback 3.9721 -0.26917 -0.574711
upperback -1.04775 -0.3131 2.3909
thorax -3.29122 -0.119841 2.8098
lowerneck -18.9349 -3.45769 -9.91355
upperneck 15.7793 -3.37634 7.0506
head 8.30791 -1.48415 3.57801
rclavicle 1.49089e-015 6.36111e-015
rhumerus -39.1111 -15.7255 -72.6825
rradius 39.406
rwrist 1.61467
rhand -16.2723 17.3208
rfingers 7.12502
rthumb 9.93743 -12.4246
lclavicle 1.49089e-015 6.36111e-015
lhumerus -38.4673 9.42526 80.8204
lradius 38.7295
lwrist -0.758916
lhand -17.4511 21.8574
lfingers 7.12502
lthumb 8.80003 51.6539
rfemur -4.26888 3.06273 24.766
rtibia 17.3401
rfoot -11.1158 -10.9481
rtoes 7.27046
lfemur -8.26177 -5.03753 -19.5964
ltibia 21.2595
lfoot -12.4193 5.46946
ltoes -1.37995
